<svg width="85" height="83" viewBox="0 0 85 83" fill="none" xmlns="http://www.w3.org/2000/svg">
<path d="M69.113 42.9987L75.5567 36.569C75.8389 36.2868 75.9974 35.904 75.9974 35.5049C75.9974 35.1058 75.8389 34.723 75.5567 34.4408C75.2745 34.1586 74.8918 34 74.4928 34C74.0937 34 73.711 34.1586 73.4288 34.4408L67 40.8855L60.5712 34.4408C60.289 34.1586 59.9063 34 59.5072 34C59.1082 34 58.7255 34.1586 58.4433 34.4408C58.1611 34.723 58.0026 35.1058 58.0026 35.5049C58.0026 35.904 58.1611 36.2868 58.4433 36.569L64.887 42.9987L58.4433 49.4284C58.3028 49.5678 58.1913 49.7335 58.1152 49.9162C58.0392 50.0988 58 50.2947 58 50.4925C58 50.6904 58.0392 50.8863 58.1152 51.0689C58.1913 51.2516 58.3028 51.4173 58.4433 51.5567C58.5826 51.6971 58.7483 51.8086 58.9309 51.8847C59.1135 51.9608 59.3094 52 59.5072 52C59.7051 52 59.9009 51.9608 60.0835 51.8847C60.2662 51.8086 60.4319 51.6971 60.5712 51.5567L67 45.112L73.4288 51.5567C73.5681 51.6971 73.7338 51.8086 73.9165 51.8847C74.0991 51.9608 74.2949 52 74.4928 52C74.6906 52 74.8865 51.9608 75.0691 51.8847C75.2517 51.8086 75.4174 51.6971 75.5567 51.5567C75.6972 51.4173 75.8087 51.2516 75.8848 51.0689C75.9608 50.8863 76 50.6904 76 50.4925C76 50.2947 75.9608 50.0988 75.8848 49.9162C75.8087 49.7335 75.6972 49.5678 75.5567 49.4284L69.113 42.9987Z" fill="white"/>
<path d="M29.5147 43.1211C33.2584 43.1178 36.8851 41.8166 39.7771 39.4393C42.6691 37.062 44.6474 33.7556 45.375 30.0833C46.1027 26.411 45.5347 22.6 43.7677 19.2996C42.0008 15.9991 39.1442 13.4133 35.6847 11.9827C32.2251 10.552 28.3766 10.3651 24.7947 11.4536C21.2127 12.5422 18.119 14.8389 16.0404 17.9526C13.9619 21.0662 13.0271 24.8042 13.3954 28.5297C13.7637 32.2552 15.4122 35.7379 18.0601 38.3843C19.5633 39.8894 21.349 41.0827 23.3148 41.8956C25.2805 42.7085 27.3875 43.125 29.5147 43.1211V43.1211ZM20.6603 18.085C22.7086 16.0364 25.4039 14.7615 28.2869 14.4774C31.1699 14.1933 34.0621 14.9177 36.4709 16.5271C38.8797 18.1365 40.6558 20.5313 41.4968 23.3034C42.3378 26.0756 42.1915 29.0536 41.0829 31.7301C39.9743 34.4065 37.972 36.6157 35.4171 37.9813C32.8623 39.3469 29.9129 39.7843 27.0717 39.2191C24.2304 38.6538 21.673 37.1209 19.8353 34.8815C17.9976 32.6421 16.9933 29.8347 16.9934 26.9378C16.9914 25.2934 17.3143 23.6647 17.9435 22.1455C18.5728 20.6262 19.4961 19.2463 20.6603 18.085V18.085Z" fill="white"/>
<path d="M29.5145 45.687C15.8001 45.687 4.64209 56.8434 4.64209 70.5578C4.64209 70.7992 4.68964 71.0383 4.78202 71.2613C4.87441 71.4844 5.00982 71.687 5.18052 71.8577C5.35122 72.0284 5.55388 72.1638 5.77692 72.2562C5.99995 72.3486 6.239 72.3962 6.48041 72.3962H52.547C53.0346 72.3962 53.5022 72.2025 53.8469 71.8577C54.1917 71.513 54.3854 71.0454 54.3854 70.5578C54.3854 56.8434 43.2274 45.687 29.5145 45.687ZM8.39816 68.7195C9.33191 57.8906 18.4489 49.3637 29.5145 49.3637C40.5801 49.3637 49.6955 57.8906 50.6293 68.7195H8.39816Z" fill="white"/>
</svg>
